<svg xmlns="http://www.w3.org/2000/svg" xmlns:xlink="http://www.w3.org/1999/xlink" width="228" zoomAndPan="magnify" viewBox="0 0 171 323.999988" height="432" preserveAspectRatio="xMidYMid meet" version="1.0"><defs><clipPath id="e650c4d8c8"><path d="M 13.804688 0.046875 L 155.972656 0.046875 L 155.972656 323.960938 L 13.804688 323.960938 Z M 13.804688 0.046875 " clip-rule="nonzero"/></clipPath><clipPath id="07381031e0"><path d="M 20.191406 0.046875 L 149.585938 0.046875 L 149.585938 323.960938 L 20.191406 323.960938 Z M 20.191406 0.046875 " clip-rule="nonzero"/></clipPath><clipPath id="1f8c630c59"><path d="M 27.816406 0.046875 L 141.960938 0.046875 L 141.960938 323.960938 L 27.816406 323.960938 Z M 27.816406 0.046875 " clip-rule="nonzero"/></clipPath><clipPath id="c91730b5eb"><path d="M 47.183594 0.046875 L 122.59375 0.046875 L 122.59375 323.960938 L 47.183594 323.960938 Z M 47.183594 0.046875 " clip-rule="nonzero"/></clipPath><clipPath id="7ccfc376e2"><path d="M 32.554688 301.710938 L 137.222656 301.710938 L 137.222656 323.960938 L 32.554688 323.960938 Z M 32.554688 301.710938 " clip-rule="nonzero"/></clipPath><clipPath id="42e1063282"><path d="M 149.585938 71.234375 L 170.25 71.234375 L 170.25 83.613281 L 149.585938 83.613281 Z M 149.585938 71.234375 " clip-rule="nonzero"/></clipPath><clipPath id="233166a0b1"><path d="M 13.804688 0.0664062 L 155.953125 0.0664062 L 155.953125 323.941406 L 13.804688 323.941406 Z M 13.804688 0.0664062 " clip-rule="nonzero"/></clipPath><clipPath id="8465de8ced"><path d="M 20.1875 0.0664062 L 149.566406 0.0664062 L 149.566406 323.941406 L 20.1875 323.941406 Z M 20.1875 0.0664062 " clip-rule="nonzero"/></clipPath><clipPath id="ad1db5afa7"><path d="M 29.253906 292.203125 L 70.664062 292.203125 L 70.664062 323.941406 L 29.253906 323.941406 Z M 29.253906 292.203125 " clip-rule="nonzero"/></clipPath><clipPath id="9d60d91ffc"><path d="M 99 292.203125 L 140.296875 292.203125 L 140.296875 323.941406 L 99 323.941406 Z M 99 292.203125 " clip-rule="nonzero"/></clipPath><clipPath id="349a85535f"><path d="M 27.8125 0.0664062 L 141.945312 0.0664062 L 141.945312 323.941406 L 27.8125 323.941406 Z M 27.8125 0.0664062 " clip-rule="nonzero"/></clipPath><clipPath id="e7d4be137a"><path d="M 47.175781 0.0664062 L 122.578125 0.0664062 L 122.578125 323.941406 L 47.175781 323.941406 Z M 47.175781 0.0664062 " clip-rule="nonzero"/></clipPath><clipPath id="45cd9f2f4c"><path d="M 149.566406 71.242188 L 170.238281 71.242188 L 170.238281 83.621094 L 149.566406 83.621094 Z M 149.566406 71.242188 " clip-rule="nonzero"/></clipPath></defs><g clip-path="url(#e650c4d8c8)"><path fill="#262626" d="M 60.265625 0.046875 L 109.515625 0.046875 C 135.039062 0.046875 155.925781 20.960938 155.925781 46.523438 L 155.925781 277.480469 C 155.925781 303.042969 135.039062 323.960938 109.515625 323.960938 L 60.265625 323.960938 C 34.738281 323.960938 13.855469 303.046875 13.855469 277.480469 L 13.855469 46.523438 C 13.855469 20.960938 34.738281 0.046875 60.265625 0.046875 " fill-opacity="1" fill-rule="evenodd"/></g><g clip-path="url(#07381031e0)"><path fill="#1f1d1d" d="M 61.832031 0.046875 L 107.945312 0.046875 C 112.117188 0.046875 116.179688 0.507812 120.070312 1.367188 C 137.75 11.390625 149.574219 29.183594 149.574219 49.359375 C 149.574219 132.410156 149.574219 191.597656 149.574219 274.648438 C 149.574219 294.820312 137.75 312.613281 120.070312 322.640625 C 116.179688 323.5 112.117188 323.960938 107.945312 323.960938 L 61.832031 323.960938 C 57.660156 323.960938 53.601562 323.5 49.710938 322.640625 C 32.027344 312.613281 20.203125 294.820312 20.203125 274.648438 C 20.203125 191.597656 20.203125 132.410156 20.203125 49.359375 C 20.203125 29.183594 32.027344 11.390625 49.710938 1.367188 C 53.601562 0.507812 57.660156 0.046875 61.832031 0.046875 " fill-opacity="1" fill-rule="evenodd"/></g><g clip-path="url(#1f8c630c59)"><path fill="#262626" d="M 64.5625 0.046875 L 105.214844 0.046875 C 108.894531 0.046875 112.472656 0.507812 115.902344 1.367188 C 131.492188 11.390625 141.914062 29.183594 141.914062 49.359375 C 141.914062 132.410156 141.914062 191.597656 141.914062 274.648438 C 141.914062 295.546875 128.230469 323.960938 105.214844 323.960938 L 64.5625 323.960938 C 41.546875 323.960938 27.863281 295.546875 27.863281 274.648438 C 27.863281 191.597656 27.863281 132.410156 27.863281 49.359375 C 27.863281 29.183594 38.285156 11.390625 53.875 1.367188 C 57.304688 0.507812 60.882812 0.046875 64.5625 0.046875 " fill-opacity="1" fill-rule="evenodd"/></g><g clip-path="url(#c91730b5eb)"><path fill="#1f1d1d" d="M 71.464844 0.046875 L 98.3125 0.046875 C 100.746094 0.046875 103.109375 0.507812 105.375 1.367188 C 115.667969 11.390625 122.554688 29.183594 122.554688 49.359375 C 122.554688 132.410156 122.554688 191.097656 122.554688 274.148438 C 122.554688 294.324219 115.667969 312.613281 105.375 322.640625 C 103.109375 323.5 100.742188 323.960938 98.3125 323.960938 C 89.363281 323.960938 80.414062 323.960938 71.464844 323.960938 C 69.035156 323.960938 66.671875 323.5 64.40625 322.640625 C 54.109375 312.613281 47.226562 294.324219 47.226562 274.148438 C 47.226562 191.097656 47.226562 132.410156 47.226562 49.359375 C 47.226562 29.183594 54.109375 11.390625 64.40625 1.367188 C 66.671875 0.507812 69.035156 0.046875 71.464844 0.046875 " fill-opacity="1" fill-rule="evenodd"/></g><path fill="#333030" d="M 38.539062 315.773438 L 131.246094 315.773438 L 131.246094 106.929688 L 38.539062 106.929688 L 38.539062 315.773438 " fill-opacity="1" fill-rule="evenodd"/><path fill="#1f1d1d" d="M 49.894531 307.625 L 44.96875 307.625 L 44.96875 110.125 L 49.894531 110.125 L 49.894531 307.625 " fill-opacity="1" fill-rule="evenodd"/><path fill="#1f1d1d" d="M 119.820312 106.929688 L 124.746094 106.929688 L 124.746094 307.625 L 119.820312 307.625 L 119.820312 106.929688 " fill-opacity="1" fill-rule="evenodd"/><path fill="#4a5f6a" d="M 33.035156 78.546875 C 60.4375 64.710938 109.339844 64.710938 136.742188 78.546875 C 142.027344 81.390625 142.859375 87.113281 141.808594 92.746094 C 138.285156 106.675781 134.761719 120.609375 131.242188 134.542969 C 95.929688 127.089844 73.847656 127.089844 38.539062 134.542969 C 35.015625 120.609375 31.492188 106.675781 27.972656 92.746094 C 26.917969 87.113281 27.753906 81.390625 33.035156 78.546875 " fill-opacity="1" fill-rule="evenodd"/><path fill="#3d535e" d="M 33.035156 78.546875 C 60.4375 64.710938 109.339844 64.710938 136.742188 78.546875 C 141.460938 81.089844 142.632812 85.925781 142.078125 90.941406 C 111.28125 76.300781 58.5 76.300781 27.703125 90.941406 C 27.148438 85.925781 28.316406 81.089844 33.035156 78.546875 " fill-opacity="1" fill-rule="evenodd"/><g clip-path="url(#7ccfc376e2)"><path fill="#4a5f6a" d="M 137.171875 314.742188 L 131.242188 301.730469 C 108.019531 319.792969 64.222656 318.890625 38.539062 301.730469 L 32.609375 314.742188 C 40.347656 320.527344 49.925781 323.960938 60.265625 323.960938 L 109.515625 323.960938 C 119.855469 323.960938 129.433594 320.527344 137.171875 314.742188 " fill-opacity="1" fill-rule="evenodd"/></g><path fill="#1f1d1d" d="M 6.101562 71.308594 L 20.671875 71.308594 L 20.671875 83.53125 L 6.101562 83.53125 C 2.746094 83.53125 0 80.78125 0 77.421875 C 0 74.058594 2.746094 71.308594 6.101562 71.308594 " fill-opacity="1" fill-rule="evenodd"/><path fill="#bcedf7" d="M 20.671875 80.53125 L 20.671875 83.53125 L 6.101562 83.53125 C 3.878906 83.53125 1.921875 82.324219 0.855469 80.53125 L 20.671875 80.53125 " fill-opacity="1" fill-rule="evenodd"/><g clip-path="url(#42e1063282)"><path fill="#1f1d1d" d="M 164.15625 71.28125 L 149.589844 71.28125 L 149.589844 83.503906 L 164.15625 83.503906 C 167.515625 83.503906 170.261719 80.753906 170.261719 77.394531 C 170.261719 74.03125 167.515625 71.28125 164.15625 71.28125 " fill-opacity="1" fill-rule="evenodd"/></g><path fill="#bcedf7" d="M 149.589844 80.503906 L 149.589844 83.503906 L 164.15625 83.503906 C 166.382812 83.503906 168.339844 82.296875 169.402344 80.503906 L 149.589844 80.503906 " fill-opacity="1" fill-rule="evenodd"/><path fill="#4a5f6a" d="M 27.863281 108.078125 L 38.539062 151.515625 L 38.539062 276.917969 L 27.863281 279.472656 L 27.863281 108.078125 " fill-opacity="1" fill-rule="evenodd"/><path fill="#4a5f6a" d="M 141.921875 108.078125 L 131.246094 151.515625 L 131.246094 276.917969 L 141.921875 279.472656 L 141.921875 108.078125 " fill-opacity="1" fill-rule="evenodd"/><path fill="#1f1d1d" d="M 38.539062 215.195312 L 38.539062 218.238281 L 27.863281 218.238281 L 27.863281 215.195312 L 38.539062 215.195312 " fill-opacity="1" fill-rule="evenodd"/><path fill="#1f1d1d" d="M 131.246094 215.195312 L 131.246094 218.238281 L 141.921875 218.238281 L 141.921875 215.195312 L 131.246094 215.195312 " fill-opacity="1" fill-rule="evenodd"/><path fill="#1f1d1d" d="M 38.539062 212.152344 L 38.539062 215.195312 L 27.863281 215.195312 L 27.863281 212.152344 L 38.539062 212.152344 " fill-opacity="1" fill-rule="evenodd"/><path fill="#1f1d1d" d="M 131.246094 212.152344 L 131.246094 215.195312 L 141.921875 215.195312 L 141.921875 212.152344 L 131.246094 212.152344 " fill-opacity="1" fill-rule="evenodd"/><path fill="#bcedf7" d="M 116.289062 1.617188 C 132.8125 4.300781 146.453125 16.09375 152.042969 31.738281 L 139.160156 31.738281 C 135.132812 19.21875 126.9375 8.59375 116.289062 1.617188 " fill-opacity="1" fill-rule="evenodd"/><path fill="#bcedf7" d="M 30.621094 31.738281 L 17.734375 31.738281 C 23.328125 16.09375 36.96875 4.300781 53.492188 1.617188 C 42.839844 8.59375 34.648438 19.21875 30.621094 31.738281 " fill-opacity="1" fill-rule="evenodd"/><path fill="#d6f2fc" d="M 30.621094 31.738281 L 22.765625 31.738281 C 26.117188 23.800781 32.351562 17.394531 40.109375 13.902344 C 35.972656 19.164062 32.726562 25.191406 30.621094 31.738281 " fill-opacity="1" fill-rule="evenodd"/><path fill="#d6f2fc" d="M 139.160156 31.738281 L 147.011719 31.738281 C 143.660156 23.800781 137.425781 17.394531 129.667969 13.902344 C 133.808594 19.164062 137.054688 25.191406 139.160156 31.738281 " fill-opacity="1" fill-rule="evenodd"/><path fill="#141111" d="M 60.265625 0.046875 L 109.515625 0.046875 C 111.777344 0.046875 114.007812 0.214844 116.1875 0.53125 C 116.234375 0.71875 116.257812 0.910156 116.257812 1.109375 C 116.257812 2.4375 115.175781 3.519531 113.851562 3.519531 L 55.839844 3.519531 C 54.515625 3.519531 53.429688 2.4375 53.429688 1.109375 C 53.429688 0.914062 53.453125 0.726562 53.5 0.546875 C 55.710938 0.21875 57.96875 0.046875 60.265625 0.046875 " fill-opacity="1" fill-rule="evenodd"/><path fill="#141111" d="M 38.539062 215.941406 L 27.863281 215.941406 L 27.863281 214.449219 L 38.539062 214.449219 L 38.539062 215.941406 " fill-opacity="1" fill-rule="nonzero"/><path fill="#141111" d="M 141.921875 215.941406 L 131.246094 215.941406 L 131.246094 214.449219 L 141.921875 214.449219 L 141.921875 215.941406 " fill-opacity="1" fill-rule="nonzero"/><path fill="#1f1d1d" d="M 67.289062 147.632812 C 68.640625 147.632812 69.75 148.742188 69.75 150.101562 L 69.75 305.160156 C 69.75 306.515625 68.640625 307.625 67.289062 307.625 C 65.933594 307.625 64.824219 306.515625 64.824219 305.160156 L 64.824219 150.101562 C 64.824219 148.742188 65.933594 147.632812 67.289062 147.632812 " fill-opacity="1" fill-rule="evenodd"/><path fill="#1f1d1d" d="M 85.160156 147.632812 C 86.515625 147.632812 87.621094 148.742188 87.621094 150.101562 L 87.621094 305.160156 C 87.621094 306.515625 86.515625 307.625 85.160156 307.625 C 83.804688 307.625 82.695312 306.515625 82.695312 305.160156 L 82.695312 150.101562 C 82.695312 148.742188 83.804688 147.632812 85.160156 147.632812 " fill-opacity="1" fill-rule="evenodd"/><path fill="#1f1d1d" d="M 103.03125 147.632812 C 104.382812 147.632812 105.492188 148.742188 105.492188 150.101562 L 105.492188 305.160156 C 105.492188 306.515625 104.382812 307.625 103.03125 307.625 C 101.675781 307.625 100.566406 306.515625 100.566406 305.160156 L 100.566406 150.101562 C 100.566406 148.742188 101.675781 147.632812 103.03125 147.632812 " fill-opacity="1" fill-rule="evenodd"/><path fill="#dd2d2d" d="M 32.609375 314.742188 C 32.601562 314.738281 30.339844 312.828125 27.214844 310.027344 C 20.632812 303.324219 16.054688 294.652344 14.46875 285 C 14.625 285 23.546875 285.085938 25.988281 288.832031 C 28.453125 292.617188 32.609375 314.742188 32.609375 314.742188 " fill-opacity="1" fill-rule="evenodd"/><path fill="#dd2d2d" d="M 137.171875 314.746094 C 137.179688 314.742188 139.441406 312.828125 142.570312 310.03125 C 149.148438 303.328125 153.726562 294.65625 155.3125 285.003906 C 155.15625 285.003906 146.234375 285.089844 143.792969 288.835938 C 141.332031 292.617188 137.171875 314.746094 137.171875 314.746094 " fill-opacity="1" fill-rule="evenodd"/><g clip-path="url(#233166a0b1)"><path fill="#f24a49" d="M 60.257812 0.0664062 L 109.5 0.0664062 C 135.023438 0.0664062 155.90625 20.976562 155.90625 46.539062 L 155.90625 277.46875 C 155.90625 303.027344 135.023438 323.941406 109.5 323.941406 L 60.257812 323.941406 C 34.734375 323.941406 13.851562 303.027344 13.851562 277.46875 L 13.851562 46.539062 C 13.851562 20.976562 34.734375 0.0664062 60.257812 0.0664062 " fill-opacity="1" fill-rule="evenodd"/></g><g clip-path="url(#8465de8ced)"><path fill="#eb3b3b" d="M 61.824219 0.0664062 L 107.933594 0.0664062 C 112.105469 0.0664062 116.164062 0.527344 120.054688 1.386719 C 137.734375 11.410156 149.554688 29.199219 149.554688 49.371094 C 149.554688 132.414062 149.554688 191.59375 149.554688 274.632812 C 149.554688 294.804688 137.734375 312.59375 120.054688 322.621094 C 116.164062 323.480469 112.105469 323.941406 107.933594 323.941406 L 61.824219 323.941406 C 57.65625 323.941406 53.59375 323.480469 49.703125 322.621094 C 32.023438 312.59375 20.203125 294.804688 20.203125 274.632812 C 20.203125 191.59375 20.203125 132.414062 20.203125 49.371094 C 20.203125 29.199219 32.023438 11.410156 49.703125 1.386719 C 53.59375 0.527344 57.652344 0.0664062 61.824219 0.0664062 " fill-opacity="1" fill-rule="evenodd"/></g><g clip-path="url(#ad1db5afa7)"><path fill="#dd2d2d" d="M 70.542969 323.941406 L 61.824219 323.941406 C 57.65625 323.941406 53.59375 323.574219 49.703125 322.894531 C 35.90625 318.949219 25.625 311.300781 30.492188 292.300781 L 70.542969 292.300781 L 70.542969 323.941406 " fill-opacity="1" fill-rule="evenodd"/></g><g clip-path="url(#9d60d91ffc)"><path fill="#dd2d2d" d="M 99.003906 323.941406 L 107.726562 323.941406 C 111.894531 323.941406 115.957031 323.574219 119.847656 322.894531 C 133.644531 318.949219 143.925781 311.300781 139.058594 292.300781 L 99.003906 292.300781 L 99.003906 323.941406 " fill-opacity="1" fill-rule="evenodd"/></g><g clip-path="url(#349a85535f)"><path fill="#f24a49" d="M 64.554688 0.0664062 L 105.203125 0.0664062 C 108.882812 0.0664062 112.460938 0.527344 115.890625 1.386719 C 131.476562 11.410156 141.898438 29.199219 141.898438 49.371094 C 141.898438 132.414062 141.898438 191.59375 141.898438 274.632812 C 141.898438 295.53125 128.214844 323.941406 105.203125 323.941406 L 64.554688 323.941406 C 41.542969 323.941406 27.863281 295.53125 27.863281 274.632812 C 27.863281 191.59375 27.863281 132.414062 27.863281 49.371094 C 27.863281 29.199219 38.285156 11.410156 53.871094 1.386719 C 57.300781 0.527344 60.878906 0.0664062 64.554688 0.0664062 " fill-opacity="1" fill-rule="evenodd"/></g><g clip-path="url(#e7d4be137a)"><path fill="#fc5353" d="M 71.457031 0.0664062 L 98.304688 0.0664062 C 100.734375 0.0664062 103.097656 0.527344 105.363281 1.386719 C 115.65625 11.410156 122.539062 29.199219 122.539062 49.371094 C 122.539062 132.414062 122.539062 191.097656 122.539062 274.136719 C 122.539062 294.308594 115.65625 312.59375 105.363281 322.621094 C 103.097656 323.480469 100.730469 323.941406 98.304688 323.941406 C 89.355469 323.941406 80.40625 323.941406 71.457031 323.941406 C 69.027344 323.941406 66.664062 323.480469 64.398438 322.621094 C 54.105469 312.59375 47.21875 294.308594 47.21875 274.136719 C 47.21875 191.097656 47.21875 132.414062 47.21875 49.371094 C 47.21875 29.199219 54.105469 11.410156 64.398438 1.386719 C 66.664062 0.527344 69.027344 0.0664062 71.457031 0.0664062 " fill-opacity="1" fill-rule="evenodd"/></g><path fill="#f24a49" d="M 38.535156 210.835938 L 131.230469 210.835938 L 131.230469 106.9375 L 38.535156 106.9375 L 38.535156 210.835938 " fill-opacity="1" fill-rule="evenodd"/><path fill="#fc5353" d="M 61.589844 210.835938 L 108.171875 210.835938 L 108.171875 106.9375 L 61.589844 106.9375 L 61.589844 210.835938 " fill-opacity="1" fill-rule="evenodd"/><path fill="#fc5353" d="M 49.886719 210.835938 L 44.964844 210.835938 L 44.964844 108.589844 L 49.886719 108.589844 L 49.886719 210.835938 " fill-opacity="1" fill-rule="evenodd"/><path fill="#fc5353" d="M 119.804688 106.9375 L 124.730469 106.9375 L 124.730469 210.835938 L 119.804688 210.835938 L 119.804688 106.9375 " fill-opacity="1" fill-rule="evenodd"/><path fill="#394458" d="M 33.03125 78.558594 C 60.433594 64.722656 109.328125 64.722656 136.726562 78.558594 C 142.007812 81.402344 142.84375 87.121094 141.792969 92.753906 C 138.269531 106.683594 134.746094 120.617188 131.222656 134.546875 C 95.921875 127.09375 73.839844 127.09375 38.535156 134.546875 C 35.011719 120.617188 31.492188 106.683594 27.96875 92.753906 C 26.917969 87.121094 27.75 81.402344 33.03125 78.558594 " fill-opacity="1" fill-rule="evenodd"/><path fill="#2e3a4f" d="M 33.03125 78.558594 C 60.433594 64.722656 109.328125 64.722656 136.726562 78.558594 C 141.445312 81.097656 142.613281 85.933594 142.058594 90.949219 C 111.265625 76.308594 58.492188 76.308594 27.699219 90.949219 C 27.144531 85.933594 28.3125 81.097656 33.03125 78.558594 " fill-opacity="1" fill-rule="evenodd"/><path fill="#394458" d="M 33.03125 255.898438 C 60.433594 269.730469 109.328125 269.730469 136.726562 255.898438 C 142.007812 253.050781 142.84375 247.332031 141.792969 241.699219 C 138.269531 227.769531 134.746094 213.839844 131.222656 199.90625 C 95.921875 207.359375 73.839844 207.359375 38.535156 199.90625 C 35.011719 213.839844 31.492188 227.769531 27.96875 241.699219 C 26.917969 247.332031 27.75 253.050781 33.03125 255.898438 " fill-opacity="1" fill-rule="evenodd"/><path fill="#e02626" d="M 6.101562 71.320312 L 20.667969 71.320312 L 20.667969 83.542969 L 6.101562 83.542969 C 2.746094 83.542969 0 80.792969 0 77.429688 C 0 74.070312 2.746094 71.320312 6.101562 71.320312 " fill-opacity="1" fill-rule="evenodd"/><path fill="#bcedf7" d="M 20.667969 80.539062 L 20.667969 83.542969 L 6.101562 83.542969 C 3.878906 83.542969 1.921875 82.332031 0.855469 80.539062 L 20.667969 80.539062 " fill-opacity="1" fill-rule="evenodd"/><g clip-path="url(#45cd9f2f4c)"><path fill="#e02626" d="M 164.136719 71.292969 L 149.570312 71.292969 L 149.570312 83.515625 L 164.136719 83.515625 C 167.496094 83.515625 170.238281 80.765625 170.238281 77.402344 C 170.238281 74.042969 167.496094 71.292969 164.136719 71.292969 " fill-opacity="1" fill-rule="evenodd"/></g><path fill="#bcedf7" d="M 149.570312 80.511719 L 149.570312 83.515625 L 164.136719 83.515625 C 166.363281 83.515625 168.316406 82.304688 169.382812 80.511719 L 149.570312 80.511719 " fill-opacity="1" fill-rule="evenodd"/><path fill="#394458" d="M 27.863281 105.597656 L 38.535156 143.5625 L 38.535156 188.921875 L 27.863281 228.257812 L 27.863281 105.597656 " fill-opacity="1" fill-rule="evenodd"/><path fill="#eb3b3b" d="M 38.535156 162.003906 L 38.535156 165.042969 L 27.863281 165.042969 L 27.863281 162.003906 L 38.535156 162.003906 " fill-opacity="1" fill-rule="evenodd"/><path fill="#eb3b3b" d="M 38.535156 158.960938 L 38.535156 162.003906 L 27.863281 162.003906 L 27.863281 158.960938 L 38.535156 158.960938 " fill-opacity="1" fill-rule="evenodd"/><path fill="#394458" d="M 141.941406 106.09375 L 131.269531 144.0625 L 131.269531 188.921875 L 141.941406 228.257812 L 141.941406 106.09375 " fill-opacity="1" fill-rule="evenodd"/><path fill="#eb3b3b" d="M 131.265625 162 L 131.265625 165.042969 L 141.9375 165.042969 L 141.9375 162 L 131.265625 162 " fill-opacity="1" fill-rule="evenodd"/><path fill="#eb3b3b" d="M 131.265625 158.957031 L 131.265625 162 L 141.9375 162 L 141.9375 158.957031 L 131.265625 158.957031 " fill-opacity="1" fill-rule="evenodd"/><path fill="#bcedf7" d="M 116.273438 1.636719 C 132.796875 4.320312 146.4375 16.113281 152.027344 31.753906 L 139.144531 31.753906 C 135.117188 19.234375 126.925781 8.613281 116.273438 1.636719 " fill-opacity="1" fill-rule="evenodd"/><path fill="#bcedf7" d="M 30.617188 31.753906 L 17.734375 31.753906 C 23.324219 16.113281 36.964844 4.320312 53.488281 1.636719 C 42.835938 8.613281 34.644531 19.234375 30.617188 31.753906 " fill-opacity="1" fill-rule="evenodd"/><path fill="#d6f2fc" d="M 30.617188 31.753906 L 22.765625 31.753906 C 26.117188 23.816406 32.351562 17.410156 40.105469 13.921875 C 35.96875 19.179688 32.722656 25.210938 30.617188 31.753906 " fill-opacity="1" fill-rule="evenodd"/><path fill="#d6f2fc" d="M 139.144531 31.753906 L 146.996094 31.753906 C 143.644531 23.816406 137.410156 17.410156 129.652344 13.921875 C 133.792969 19.179688 137.039062 25.210938 139.144531 31.753906 " fill-opacity="1" fill-rule="evenodd"/><path fill="#e02626" d="M 60.257812 0.0664062 L 109.5 0.0664062 C 111.765625 0.0664062 113.992188 0.234375 116.175781 0.550781 C 116.21875 0.738281 116.246094 0.929688 116.246094 1.128906 C 116.246094 2.457031 115.160156 3.539062 113.835938 3.539062 L 55.832031 3.539062 C 54.507812 3.539062 53.425781 2.457031 53.425781 1.128906 C 53.425781 0.933594 53.449219 0.746094 53.492188 0.566406 C 55.703125 0.238281 57.960938 0.0664062 60.257812 0.0664062 " fill-opacity="1" fill-rule="evenodd"/><path fill="#e02626" d="M 38.535156 162.75 L 27.863281 162.75 L 27.863281 161.257812 L 38.535156 161.257812 L 38.535156 162.75 " fill-opacity="1" fill-rule="nonzero"/><path fill="#e02626" d="M 141.941406 162.753906 L 131.269531 162.753906 L 131.269531 161.265625 L 141.941406 161.265625 L 141.941406 162.753906 " fill-opacity="1" fill-rule="nonzero"/></svg>