<svg xmlns="http://www.w3.org/2000/svg" xmlns:xlink="http://www.w3.org/1999/xlink" width="169" zoomAndPan="magnify" viewBox="0 0 126.75 144.75" height="193" preserveAspectRatio="xMidYMid meet" version="1.0"><defs><clipPath id="a430a1adec"><path d="M 3 33 L 123 33 L 123 144.484375 L 3 144.484375 Z M 3 33 " clip-rule="nonzero"/></clipPath><clipPath id="da317097b1"><path d="M 35 0.0195312 L 91 0.0195312 L 91 56 L 35 56 Z M 35 0.0195312 " clip-rule="nonzero"/></clipPath><clipPath id="6491c4f28a"><path d="M 3 33 L 123 33 L 123 144.484375 L 3 144.484375 Z M 3 33 " clip-rule="nonzero"/></clipPath><clipPath id="9fa616d0d3"><path d="M 35 0.0195312 L 91 0.0195312 L 91 56 L 35 56 Z M 35 0.0195312 " clip-rule="nonzero"/></clipPath></defs><g clip-path="url(#a430a1adec)"><path fill="#5271ff" d="M 113.320312 35.027344 C 108.875 37.664062 102.652344 42.183594 100.390625 43.515625 C 94.691406 46.867188 89.65625 51.210938 84.027344 54.667969 C 75.539062 59.894531 63.207031 62.691406 53.484375 59.867188 C 43.074219 56.84375 34.871094 48.90625 25.699219 43.515625 C 23.4375 42.183594 17.214844 37.664062 12.773438 35.027344 C 4.957031 30.390625 0.160156 38.296875 5.402344 42.675781 C 8.84375 45.550781 14.792969 51.136719 19.214844 55.234375 C 19.683594 55.667969 20.136719 56.113281 20.59375 56.558594 C 20.964844 56.917969 21.332031 57.277344 21.695312 57.644531 C 22.28125 58.234375 22.859375 58.832031 23.425781 59.4375 C 23.464844 59.480469 23.507812 59.523438 23.542969 59.566406 C 44.226562 81.851562 53.105469 115.648438 57.265625 144.347656 L 68.828125 144.347656 C 73.269531 113.71875 83.082031 77.285156 106.875 55.234375 C 111.296875 51.136719 117.242188 45.550781 120.691406 42.675781 C 125.929688 38.296875 121.136719 30.390625 113.320312 35.027344 " fill-opacity="1" fill-rule="nonzero"/></g><g clip-path="url(#da317097b1)"><path fill="#5271ff" d="M 64.203125 55.679688 C 79.386719 55.042969 91.1875 42.210938 90.550781 27.019531 C 89.914062 11.832031 77.082031 0.0351562 61.890625 0.667969 C 46.703125 1.308594 34.902344 14.140625 35.539062 29.328125 C 36.175781 44.519531 49.007812 56.320312 64.203125 55.679688 " fill-opacity="1" fill-rule="nonzero"/></g><g clip-path="url(#6491c4f28a)"><path fill="#5271ff" d="M 113.320312 35.027344 C 108.875 37.664062 102.652344 42.183594 100.390625 43.515625 C 94.691406 46.867188 89.65625 51.210938 84.027344 54.667969 C 75.539062 59.894531 63.207031 62.691406 53.484375 59.867188 C 43.074219 56.84375 34.871094 48.90625 25.699219 43.515625 C 23.4375 42.183594 17.214844 37.664062 12.773438 35.027344 C 4.957031 30.390625 0.160156 38.296875 5.402344 42.675781 C 8.84375 45.550781 14.792969 51.136719 19.214844 55.234375 C 19.683594 55.667969 20.136719 56.113281 20.59375 56.558594 C 20.964844 56.917969 21.332031 57.277344 21.695312 57.644531 C 22.28125 58.234375 22.859375 58.832031 23.425781 59.4375 C 23.464844 59.480469 23.507812 59.523438 23.542969 59.566406 C 44.226562 81.851562 53.105469 115.648438 57.265625 144.347656 L 68.828125 144.347656 C 73.269531 113.71875 83.082031 77.285156 106.875 55.234375 C 111.296875 51.136719 117.242188 45.550781 120.691406 42.675781 C 125.929688 38.296875 121.136719 30.390625 113.320312 35.027344 " fill-opacity="1" fill-rule="nonzero"/></g><g clip-path="url(#9fa616d0d3)"><path fill="#5271ff" d="M 64.203125 55.679688 C 79.386719 55.042969 91.1875 42.210938 90.550781 27.019531 C 89.914062 11.832031 77.082031 0.0351562 61.890625 0.667969 C 46.703125 1.308594 34.902344 14.140625 35.539062 29.328125 C 36.175781 44.519531 49.007812 56.320312 64.203125 55.679688 " fill-opacity="1" fill-rule="nonzero"/></g></svg>